<?xml version="1.0" standalone="no"?>
<!DOCTYPE svg PUBLIC "-//W3C//DTD SVG 20010904//EN"
 "http://www.w3.org/TR/2001/REC-SVG-20010904/DTD/svg10.dtd">
<svg version="1.0" xmlns="http://www.w3.org/2000/svg"
 width="300.000000pt" height="300.000000pt" viewBox="0 0 300.000000 300.000000"
 preserveAspectRatio="xMidYMid meet">
<metadata>
Created by potrace 1.10, written by Peter Selinger 2001-2011
</metadata>
<g transform="translate(0.000000,300.000000) scale(0.100000,-0.100000)"
fill="#000000" stroke="none">
<path d="M145 1955 l-25 -24 0 -310 c0 -209 4 -318 11 -335 21 -45 43 -47 408
-44 l343 3 19 24 c18 22 19 43 19 345 l0 323 -23 21 c-23 22 -28 22 -376 22
l-352 0 -24 -25z m733 -17 c9 -9 12 -95 12 -324 0 -271 -2 -315 -16 -328 -13
-14 -59 -16 -351 -16 -299 0 -338 2 -355 17 -17 15 -18 38 -18 320 0 191 4
312 10 324 10 18 25 19 358 19 257 0 351 -3 360 -12z"/>
<path d="M217 1893 c-4 -3 -7 -24 -7 -45 0 -27 4 -38 15 -38 10 0 15 10 15 30
l0 30 280 0 280 0 0 -255 0 -255 -280 0 -280 0 0 25 c0 16 -6 25 -15 25 -11 0
-15 -11 -15 -40 l0 -40 310 0 310 0 -2 283 -3 282 -301 3 c-165 1 -303 -1
-307 -5z"/>
<path d="M180 1764 c0 -42 0 -42 41 -46 22 -2 42 -2 45 1 2 2 4 23 4 46 l0 42
-45 0 -45 0 0 -43z m70 1 c0 -20 -5 -25 -25 -25 -20 0 -25 5 -25 25 0 20 5 25
25 25 20 0 25 -5 25 -25z"/>
<path d="M455 1766 c-68 -30 -115 -123 -96 -191 22 -81 81 -127 161 -127 75 0
125 34 155 105 21 50 19 86 -8 137 -40 75 -136 109 -212 76z m140 -36 c81 -50
86 -169 9 -229 -95 -75 -242 15 -220 135 8 38 49 92 80 104 38 15 98 11 131
-10z"/>
<path d="M490 1713 c-8 -3 -27 -17 -42 -31 -21 -20 -28 -35 -28 -65 0 -45 15
-77 35 -77 18 0 18 0 -1 39 -27 55 8 111 70 111 16 0 26 6 26 15 0 15 -30 19
-60 8z"/>
<path d="M598 1665 c-4 -4 -4 -21 -1 -38 7 -43 -26 -85 -69 -89 -46 -4 -49
-28 -4 -28 47 0 95 42 102 90 5 34 -14 79 -28 65z"/>
<path d="M210 1610 c0 -64 3 -80 15 -80 12 0 15 16 15 80 0 64 -3 80 -15 80
-12 0 -15 -16 -15 -80z"/>
<path d="M180 1460 c0 -55 1 -56 31 -37 17 10 23 10 26 0 3 -7 11 -13 19 -13
10 0 14 14 14 50 l0 50 -45 0 -45 0 0 -50z m70 0 c0 -15 -7 -20 -25 -20 -18 0
-25 5 -25 20 0 15 7 20 25 20 18 0 25 -5 25 -20z"/>
<path d="M1910 1656 c0 -195 3 -206 66 -206 27 0 34 4 34 20 0 13 -7 20 -20
20 -11 0 -20 6 -20 13 -1 6 -1 75 0 153 0 77 -2 148 -6 157 -3 9 -17 17 -30
17 l-24 0 0 -174z"/>
<path d="M1040 1806 c0 -12 93 -322 101 -338 6 -12 21 -18 42 -18 l33 0 48
168 c27 92 51 173 54 180 3 10 -3 13 -24 10 -27 -3 -29 -6 -68 -156 -21 -83
-41 -150 -44 -147 -3 2 -17 53 -33 112 -45 176 -50 188 -81 191 -16 2 -28 1
-28 -2z"/>
<path d="M2440 1793 c-70 -22 -90 -60 -90 -171 0 -128 28 -172 111 -172 54 0
93 30 103 81 11 57 6 158 -10 197 -18 47 -73 79 -114 65z m62 -65 c17 -31 16
-186 0 -216 -10 -18 -20 -22 -45 -20 -27 3 -34 9 -45 43 -16 46 -11 159 7 193
16 30 66 30 83 0z"/>
<path d="M2705 1793 c-33 -8 -74 -54 -81 -91 -4 -19 -1 -52 5 -74 10 -31 20
-43 48 -55 32 -13 41 -13 75 0 44 18 49 8 23 -43 -17 -32 -44 -43 -96 -38 -28
2 -34 0 -34 -17 0 -18 8 -20 61 -23 57 -3 64 -1 92 27 53 53 65 167 27 258
-18 42 -70 67 -120 56z m65 -58 c6 -8 14 -33 17 -56 5 -34 2 -45 -12 -56 -23
-16 -67 -17 -83 -1 -16 16 -16 100 0 116 17 17 63 15 78 -3z"/>
<path d="M2087 1783 c-4 -3 -7 -21 -7 -40 0 -26 -4 -33 -20 -33 -13 0 -20 -7
-20 -20 0 -13 7 -20 20 -20 19 0 20 -7 20 -98 0 -63 4 -102 12 -110 7 -7 31
-12 55 -12 36 0 43 3 43 19 0 14 -8 21 -27 23 -28 3 -28 3 -31 91 l-3 87 36 0
c28 0 35 4 35 20 0 16 -7 20 -35 20 -34 0 -35 1 -35 40 0 32 -4 40 -18 40 -10
0 -22 -3 -25 -7z"/>
<path d="M1382 1699 c-15 -5 -22 -15 -20 -26 4 -18 11 -19 75 -7 38 8 63 -8
63 -40 0 -19 -6 -21 -49 -21 -38 0 -55 -5 -75 -24 -45 -42 -32 -110 26 -130
26 -9 38 -8 69 8 32 17 39 18 49 5 25 -29 59 -5 39 27 -5 8 -9 51 -9 97 0 104
-14 122 -92 121 -29 0 -63 -4 -76 -10z m118 -159 c0 -32 -22 -50 -63 -50 -22
0 -37 16 -37 40 0 20 34 40 66 40 31 0 34 -3 34 -30z"/>
<path d="M1628 1603 c5 -130 15 -153 70 -153 21 0 48 7 60 16 21 15 25 15 41
0 10 -9 22 -16 28 -16 16 0 23 24 12 41 -5 8 -9 60 -9 117 l0 102 -25 0 c-25
0 -25 0 -25 -95 l0 -96 -32 -14 c-57 -23 -67 -9 -70 103 -3 95 -3 97 -28 100
l-26 3 4 -108z"/>
</g>
</svg>
